<?xml version="1.0" standalone="no"?>
<!DOCTYPE svg PUBLIC "-//W3C//DTD SVG 20010904//EN"
 "http://www.w3.org/TR/2001/REC-SVG-20010904/DTD/svg10.dtd">
<svg version="1.0" xmlns="http://www.w3.org/2000/svg"
 width="1115.000000pt" height="1115.000000pt" viewBox="0 0 1115.000000 1115.000000"
 preserveAspectRatio="xMidYMid meet">
<metadata>
Created by potrace 1.11, written by Peter Selinger 2001-2013
</metadata>
<g transform="translate(0.000000,1115.000000) scale(0.100000,-0.100000)"
fill="#000000" stroke="none">
<path d="M5309 11116 c-2 -2 -56 -7 -119 -10 -141 -8 -284 -23 -390 -40 -14
-2 -47 -8 -75 -12 -27 -4 -55 -8 -62 -10 -6 -1 -30 -5 -51 -8 -22 -3 -51 -8
-64 -10 -12 -3 -34 -8 -48 -10 -45 -8 -163 -34 -250 -56 -47 -12 -111 -28
-143 -36 -173 -42 -550 -175 -767 -270 -261 -114 -652 -330 -885 -489 -156
-107 -399 -288 -435 -325 -3 -3 -34 -30 -70 -60 -174 -149 -436 -409 -584
-580 -110 -128 -270 -332 -337 -429 -24 -35 -55 -80 -69 -100 -83 -118 -297
-478 -331 -555 -5 -11 -13 -28 -18 -36 -40 -66 -162 -338 -227 -507 -83 -213
-168 -484 -213 -673 -52 -222 -53 -224 -85 -420 -23 -137 -27 -166 -42 -300
-3 -30 -8 -71 -10 -90 -20 -184 -26 -746 -10 -925 5 -49 10 -106 11 -125 3
-36 13 -126 21 -195 3 -22 14 -94 25 -160 12 -66 23 -133 25 -150 9 -58 76
-340 113 -477 95 -348 281 -804 468 -1142 70 -128 220 -372 287 -469 50 -72
257 -350 265 -357 4 -3 26 -30 51 -60 25 -30 47 -57 50 -60 3 -3 34 -39 70
-80 101 -117 404 -415 534 -525 370 -313 736 -555 1146 -758 212 -105 237
-117 380 -174 47 -19 94 -38 105 -43 195 -87 801 -254 1035 -286 19 -2 42 -6
50 -9 8 -2 39 -7 69 -10 30 -4 63 -9 75 -11 19 -4 119 -16 231 -28 188 -21
780 -29 945 -13 41 4 102 10 135 13 33 3 96 10 140 15 44 6 98 12 120 15 34 4
103 15 240 39 143 26 273 57 544 131 306 83 789 285 1116 466 370 205 753 478
1055 753 64 58 314 308 381 380 78 86 253 298 341 417 417 558 725 1191 907
1864 30 110 77 313 86 369 3 17 8 41 10 55 3 14 7 36 10 50 3 14 7 36 10 50 2
14 7 48 11 75 3 28 8 57 9 67 7 33 22 156 30 243 27 281 27 787 1 1055 -2 19
-7 67 -10 105 -4 39 -9 77 -11 85 -2 8 -7 40 -10 70 -3 30 -8 62 -10 70 -2 8
-7 35 -10 60 -18 137 -96 480 -147 645 -33 109 -118 367 -132 400 -7 17 -37
89 -66 160 -73 181 -244 524 -341 685 -44 74 -86 144 -93 155 -43 76 -199 297
-336 475 -144 187 -466 530 -660 702 -200 177 -410 339 -630 485 -127 85 -335
213 -346 213 -2 0 -22 11 -44 25 -40 25 -300 157 -380 193 -371 165 -764 297
-1090 367 -37 8 -228 45 -260 50 -19 3 -42 8 -50 10 -8 2 -33 6 -55 9 -22 3
-89 12 -150 20 -107 15 -157 20 -300 32 -79 7 -680 15 -686 10z"/>
</g>
</svg>
